<svg
    xmlns="http://www.w3.org/2000/svg"
    viewBox="0 0 200 86"
    id="vector">
    <path
        id="path"
        d="M 50.674 0.24 L 40.9 0.24 C 37.578 0.24 34.53 1.753 32.544 4.338 C 30.001 4.934 27.766 6.452 26.276 8.598 L 24.217 11.564 C 20.288 12.431 16.68 14.384 13.807 17.2 C 10.635 20.29 8.495 24.287 7.683 28.64 L 0.25 68.116 C -0.144 70.194 -0.074 72.334 0.456 74.383 C 0.985 76.431 1.961 78.336 3.314 79.963 C 4.662 81.593 6.354 82.906 8.269 83.805 C 10.184 84.705 12.274 85.17 14.39 85.167 L 170.986 85.167 C 181.357 85.167 190.277 77.77 192.196 67.577 L 199.629 28.102 C 200.023 26.024 199.953 23.884 199.423 21.835 C 198.894 19.787 197.918 17.882 196.565 16.255 C 195.217 14.625 193.525 13.312 191.61 12.413 C 189.695 11.513 187.605 11.048 185.489 11.051 L 66.52 11.051 L 64.915 8.575 C 63.508 6.408 61.354 4.83 58.864 4.14 C 57.873 2.924 56.624 1.943 55.208 1.268 C 53.792 0.594 52.243 0.243 50.674 0.24"
        fill="#364571"
        fill-rule="evenodd"/>
    <path
        id="path_1"
        d="M 185.49 13.449 L 65.217 13.449 L 62.903 9.879 C 62.294 8.936 61.497 8.129 60.561 7.51 C 59.625 6.891 58.571 6.472 57.465 6.281 C 57.219 5.909 56.943 5.558 56.639 5.232 C 55.875 4.415 54.952 3.763 53.926 3.317 C 52.9 2.871 51.794 2.64 50.675 2.638 L 40.9 2.638 C 39.506 2.636 38.135 2.991 36.918 3.671 C 35.701 4.351 34.679 5.332 33.95 6.52 C 32.81 6.66 31.713 7.04 30.73 7.633 C 29.748 8.227 28.901 9.021 28.246 9.964 L 25.633 13.729 C 17.854 15.066 11.542 21.106 10.039 29.084 L 2.607 68.56 C 1.217 75.941 6.879 82.769 14.391 82.769 L 170.987 82.769 C 175.458 82.769 179.792 81.206 183.234 78.352 C 186.676 75.498 189.014 71.528 189.841 67.134 L 197.274 27.659 C 198.664 20.277 193.002 13.449 185.491 13.449"
        fill="#0baeb5"
        fill-rule="evenodd"/>
    <path
        id="path_2"
        d="M 180.511 17.206 L 63.651 17.206 L 60.085 11.706 C 59.582 10.926 58.863 10.309 58.015 9.931 C 57.168 9.553 56.228 9.429 55.312 9.576 C 55.112 8.816 54.727 8.106 54.182 7.522 C 53.733 7.041 53.19 6.658 52.586 6.395 C 51.983 6.133 51.332 5.997 50.674 5.996 L 40.9 5.996 C 39.771 5.999 38.677 6.4 37.813 7.127 C 36.949 7.855 36.368 8.864 36.173 9.976 C 35.22 9.724 34.213 9.771 33.288 10.112 C 32.363 10.452 31.565 11.069 31.003 11.878 L 26.358 18.573 C 23.622 19.706 21.208 21.497 19.33 23.787 C 17.453 26.077 16.17 28.796 15.595 31.701 L 8.784 66.125 C 7.464 72.796 12.569 79.011 19.37 79.011 L 166.642 79.011 C 175.229 79.011 182.618 72.941 184.285 64.516 L 191.097 30.092 C 192.417 23.42 187.312 17.205 180.511 17.205"
        fill="#ffffff"
        fill-rule="evenodd"/>
    <path
        id="path_3"
        d="M 62.954 20.54 L 58.073 13.01 C 57.729 12.479 57.189 12.106 56.571 11.971 C 55.953 11.836 55.306 11.951 54.773 12.291 L 52.888 13.491 L 53.066 10.96 C 53.097 10.521 53.006 10.082 52.804 9.691 C 52.602 9.301 52.297 8.973 51.921 8.744 C 51.545 8.515 51.114 8.394 50.674 8.394 L 40.9 8.394 C 39.64 8.394 38.594 9.37 38.508 10.627 L 38.285 13.86 L 36.206 12.574 C 35.684 12.251 35.057 12.14 34.456 12.265 C 33.855 12.39 33.324 12.742 32.974 13.246 L 27 21.855 C 26.751 22.213 26.605 22.633 26.577 23.068 C 26.549 23.503 26.64 23.938 26.84 24.325 C 27.041 24.712 27.343 25.038 27.715 25.266 L 31.117 27.357 L 27.319 29.777 C 26.962 30.004 26.672 30.322 26.477 30.698 C 26.283 31.074 26.191 31.494 26.212 31.917 C 26.233 32.339 26.365 32.749 26.595 33.104 L 31.639 40.88 C 31.868 41.233 32.186 41.52 32.561 41.711 C 32.937 41.903 33.356 41.992 33.776 41.97 C 34.197 41.948 34.604 41.815 34.957 41.586 L 36.444 40.62 L 36.309 42.58 C 36.278 43.019 36.369 43.457 36.571 43.848 C 36.773 44.238 37.078 44.566 37.454 44.795 C 37.829 45.024 38.26 45.145 38.7 45.145 L 48.427 45.145 C 49.687 45.145 50.731 44.172 50.819 42.915 L 51.052 39.612 L 53.608 41.182 C 54.146 41.513 54.794 41.618 55.409 41.474 C 56.024 41.331 56.558 40.95 56.894 40.415 L 62.411 31.627 C 62.636 31.269 62.762 30.858 62.776 30.435 C 62.791 30.013 62.694 29.594 62.494 29.221 C 62.295 28.849 62 28.535 61.641 28.313 L 58.439 26.331 L 62.248 23.856 C 62.781 23.51 63.155 22.966 63.287 22.345 C 63.419 21.723 63.299 21.074 62.954 20.541"
        fill="#364571"
        fill-rule="evenodd"/>
    <path
        id="path_4"
        d="M 55.725 25.082 L 32.755 25.082 C 32.755 25.082 31.162 33.238 37.912 36.425 C 37.912 36.425 36.975 37.363 37.444 39.238 L 49.819 39.238 C 49.819 39.238 50.006 36.613 49.163 36.051 C 49.163 36.051 56.475 33.425 55.725 25.081 M 48.465 23.812 L 51.588 23.812 L 54.475 19.51 C 54.475 19.51 56.125 18.862 56.243 17.684 C 56.36 16.505 55.763 15.87 55.241 15.562 C 54.511 15.132 53.12 15.562 52.648 16.505 C 52.177 17.448 52.361 18.332 52.361 18.332 L 48.465 23.812 Z"
        fill="#fefefe"
        fill-rule="evenodd"/>
    <path
        id="path_5"
        d="M 42.045 33.768 L 46.182 33.768 L 46.182 29.991 L 42.045 29.991 Z"
        fill="#364571"
        fill-rule="evenodd"/>
    <path
        id="path_6"
        d="M 48.328 31.67 L 48.328 33.768 L 46.182 33.768 L 46.182 29.991 L 46.649 29.991 C 47.576 29.991 48.328 30.743 48.328 31.67 M 42.045 29.991 L 42.045 33.768 L 41.529 33.768 C 41.084 33.768 40.657 33.591 40.342 33.276 C 40.027 32.961 39.85 32.534 39.85 32.089 L 39.85 29.991 L 42.045 29.991 Z"
        fill="#0baeb5"
        fill-rule="evenodd"/>
    <path
        id="path_7"
        d="M 43.724 27.533 L 46.182 27.533 L 46.182 29.991 L 42.045 29.991 L 42.045 29.211 C 42.045 28.285 42.797 27.533 43.724 27.533 M 42.045 33.768 L 46.182 33.768 L 46.182 34.548 C 46.182 35.474 45.43 36.226 44.503 36.226 L 42.045 36.226 L 42.045 33.768 Z"
        fill="#0baeb5"
        fill-rule="evenodd"/>
    <path
        id="path_8"
        d="M 93.182 50.675 L 88.146 50.675 L 80.818 59.901 L 78.671 50.674 L 73.635 50.674 L 76.924 64.805 L 76.947 64.805 L 74.009 74.485 L 79.045 74.485 L 81.996 64.759 Z M 152.738 55.328 L 154.191 51.065 L 138.599 51.065 L 131.405 74.485 L 147.727 74.485 L 149.18 70.223 L 137.75 70.223 L 139.383 64.907 L 146.275 64.907 L 147.727 60.643 L 140.693 60.643 L 142.326 55.328 Z"
        fill="#364571"
        fill-rule="evenodd"/>
    <path
        id="path_9"
        d="M 88.159 25.082 L 89.611 20.819 L 74.02 20.819 L 66.825 44.239 L 71.861 44.239 L 74.804 34.661 L 81.696 34.661 L 83.148 30.397 L 76.113 30.397 L 77.746 25.082 Z M 91.51 35.979 L 97.813 24.785 L 97.24 35.979 L 91.51 35.979 Z M 100.047 20.819 L 95.731 20.819 L 82.541 44.239 L 86.858 44.239 L 89.364 39.789 L 97.045 39.789 L 96.818 44.239 L 101.854 44.239 L 102.094 20.819 L 100.047 20.819 Z M 163.199 35.979 L 169.502 24.785 L 168.929 35.979 L 163.199 35.979 Z M 171.736 20.819 L 167.419 20.819 L 154.229 44.239 L 158.546 44.239 L 161.052 39.789 L 168.734 39.789 L 168.506 44.239 L 173.542 44.239 L 173.782 20.819 L 171.736 20.819 Z"
        fill="#0baeb5"
        fill-rule="evenodd"/>
    <path
        id="path_10"
        d="M 56.31 66.225 L 62.614 55.031 L 62.041 66.225 L 56.311 66.225 Z M 64.847 51.065 L 60.531 51.065 L 47.34 74.485 L 51.657 74.485 L 54.164 70.035 L 61.846 70.035 L 61.618 74.485 L 66.654 74.485 L 66.894 51.065 L 64.847 51.065 Z"
        fill="#364571"
        fill-rule="evenodd"/>
    <path
        id="path_11"
        d="M 153.587 20.818 L 149.75 20.818 L 140.782 36.744 L 141.597 20.818 L 134.535 20.818 L 127.34 44.24 L 131.657 44.24 L 137.542 25.08 L 136.562 44.239 L 136.561 44.239 L 140.398 44.239 L 151.384 24.73 L 145.392 44.24 L 149.708 44.24 L 156.902 20.818 Z"
        fill="#0baeb5"
        fill-rule="evenodd"/>
    <path
        id="path_12"
        d="M 46.734 51.065 L 42.897 51.065 L 33.928 66.99 L 34.744 51.064 L 27.68 51.064 L 20.486 74.486 L 24.803 74.486 L 30.688 55.326 L 29.707 74.485 L 33.543 74.485 L 44.53 54.976 L 38.537 74.486 L 42.854 74.486 L 50.048 51.064 Z"
        fill="#364571"
        fill-rule="evenodd"/>
    <path
        id="path_13"
        d="M 117.543 31.05 L 114.563 31.05 L 116.621 24.353 L 119.924 24.353 C 121.115 24.353 122.082 25.32 122.082 26.511 C 122.082 27.308 121.873 28.091 121.474 28.781 C 121.076 29.471 120.503 30.044 119.813 30.443 C 119.123 30.841 118.34 31.051 117.543 31.051 M 122.289 20.818 L 112.671 20.818 L 105.476 44.24 L 110.512 44.24 L 113.442 34.7 L 115.495 34.7 L 116.806 44.24 L 121.842 44.24 L 120.267 34.414 C 122.218 33.911 123.947 32.773 125.181 31.18 C 126.415 29.587 127.085 27.629 127.085 25.614 C 127.085 24.343 126.579 23.122 125.68 22.223 C 124.781 21.324 123.56 20.818 122.289 20.818"
        fill="#0baeb5"
        fill-rule="evenodd"/>
    <path
        id="path_14"
        d="M 104.527 57.621 L 101.014 68.734 C 100.784 69.463 100.327 70.1 99.71 70.552 C 99.093 71.003 98.348 71.247 97.584 71.247 L 97.055 71.247 C 96.601 71.247 96.158 71.104 95.79 70.838 C 95.422 70.572 95.148 70.197 95.005 69.766 C 94.863 69.335 94.86 68.87 94.997 68.437 L 98.511 57.325 C 98.741 56.596 99.198 55.959 99.815 55.507 C 100.432 55.056 101.177 54.812 101.941 54.812 L 102.469 54.812 C 102.923 54.812 103.365 54.955 103.733 55.221 C 104.101 55.486 104.376 55.862 104.518 56.292 C 104.661 56.723 104.664 57.188 104.527 57.621 M 104.297 50.365 L 103.554 50.365 C 99.034 50.365 95.042 53.307 93.704 57.625 L 90.46 68.095 C 89.36 71.644 92.013 75.243 95.728 75.243 L 96.472 75.243 C 100.991 75.243 104.984 72.3 106.322 67.983 L 109.566 57.513 C 110.666 53.964 108.014 50.365 104.298 50.365 M 168.77 57.621 L 165.257 68.734 C 165.027 69.463 164.57 70.1 163.953 70.552 C 163.336 71.003 162.591 71.247 161.827 71.247 L 161.299 71.247 C 160.845 71.247 160.402 71.104 160.034 70.838 C 159.666 70.572 159.392 70.197 159.249 69.766 C 159.107 69.335 159.104 68.87 159.241 68.437 L 162.755 57.325 C 162.985 56.596 163.442 55.959 164.059 55.507 C 164.676 55.056 165.421 54.812 166.185 54.812 L 166.713 54.812 C 167.167 54.812 167.609 54.955 167.977 55.221 C 168.345 55.486 168.62 55.862 168.762 56.292 C 168.905 56.723 168.908 57.188 168.771 57.621 M 168.541 50.365 L 167.798 50.365 C 163.278 50.365 159.286 53.307 157.948 57.625 L 154.703 68.095 C 153.603 71.644 156.256 75.243 159.972 75.243 L 160.715 75.243 C 165.235 75.243 169.227 72.3 170.565 67.983 L 173.81 57.513 C 174.91 53.964 172.257 50.365 168.541 50.365 M 121.992 61.296 L 119.012 61.296 L 121.07 54.599 L 124.373 54.599 C 125.565 54.599 126.531 55.566 126.531 56.757 C 126.531 57.554 126.322 58.337 125.923 59.027 C 125.525 59.717 124.952 60.29 124.262 60.689 C 123.572 61.087 122.789 61.297 121.992 61.297 M 126.738 51.064 L 117.12 51.064 L 109.925 74.486 L 114.961 74.486 L 117.891 64.946 L 119.944 64.946 L 121.255 74.486 L 126.291 74.486 L 124.716 64.66 C 126.667 64.157 128.397 63.019 129.631 61.426 C 130.865 59.834 131.535 57.875 131.535 55.86 C 131.535 55.018 131.313 54.191 130.892 53.462 C 130.471 52.733 129.866 52.127 129.136 51.706 C 128.407 51.285 127.58 51.064 126.738 51.064"
        fill="#364571"
        fill-rule="evenodd"/>
</svg>
